<svg width="188" height="167" viewBox="0 0 188 167" fill="none" xmlns="http://www.w3.org/2000/svg">
<path d="M3.5319 73H133.467C138.134 88.6501 138.221 97.1975 133.467 112H3.5319C-1.28011 96.986 -1.07336 88.4382 3.5319 73Z" fill="#393535"/>
<path d="M134.197 69.4603L4.00073 68.5385C12.6505 40.2442 38.7452 19.7833 69.4456 20.0006C100.146 20.218 125.948 41.0463 134.197 69.4603Z" fill="white"/>
<path d="M4.34834 116.637L134.544 117.563C125.894 145.857 99.7983 166.317 69.0979 166.099C38.3975 165.881 12.5958 145.052 4.34834 116.637Z" fill="#393535"/>
<path d="M110.772 34C110.272 21.3333 112.772 2.99998 138.272 3C163.772 3.00002 146.772 18.5 146.772 18.5C146.772 18.5 136.772 1.20002 110.772 34C139.696 36.2442 155.98 38.2008 182.772 18.5C173.364 33.5487 173.923 40.5252 182.772 51C159.991 53.1358 144.02 49.0789 110.772 34Z" fill="#393535"/>
<path d="M110.772 34C110.272 21.3333 112.772 2.99998 138.272 3C163.772 3.00002 146.772 18.5 146.772 18.5C146.772 18.5 136.772 1.20002 110.772 34ZM110.772 34C139.696 36.2442 155.98 38.2008 182.772 18.5C173.364 33.5487 173.923 40.5252 182.772 51C159.991 53.1358 144.02 49.079 110.772 34Z" stroke="black"/>
<path d="M69.4279 22.5006C97.8011 22.7014 121.863 41.1981 130.771 66.936L7.46128 66.063C16.7329 40.4539 41.0546 22.2997 69.4279 22.5006Z" stroke="black" stroke-width="5"/>
<path d="M69.1157 163.599C40.7425 163.397 16.6807 144.9 7.77341 119.162L131.084 120.038C121.811 145.647 97.4889 163.801 69.1157 163.599Z" fill="white" stroke="black" stroke-width="5"/>
<path d="M110.772 34C110.272 21.3333 112.772 2.99998 138.272 3C163.772 3.00002 146.772 18.5 146.772 18.5C146.772 18.5 136.772 1.20002 110.772 34C139.696 36.2442 155.98 38.2008 182.772 18.5C173.364 33.5487 173.923 40.5252 182.772 51C159.991 53.1358 144.02 49.0789 110.772 34Z" fill="white"/>
<path d="M110.772 34C110.272 21.3333 112.772 2.99998 138.272 3C163.772 3.00002 146.772 18.5 146.772 18.5C146.772 18.5 136.772 1.20002 110.772 34ZM110.772 34C139.696 36.2442 155.98 38.2008 182.772 18.5C173.364 33.5487 173.923 40.5252 182.772 51C159.991 53.1358 144.02 49.079 110.772 34Z" stroke="black" stroke-width="5"/>
<path d="M24.808 84.48H22.288V81.6H30.28V84.48H28.12V101.04L24.376 105H17.464L13.72 101.04V94.704H16.6V99.564L18.868 101.904H22.936L24.808 99.996V84.48ZM62.6173 105L58.8733 101.04V85.56L62.6173 81.6H72.7693L76.5133 85.56V101.04L72.7693 105H62.6173ZM64.0213 101.904H71.3293L73.2013 99.996V86.604L71.3653 84.696H64.0573L62.1853 86.604V99.996L64.0213 101.904ZM105.839 81.6H120.239L123.983 85.56V90.6L122.039 92.652L124.703 95.424V101.04L120.959 105H105.839V102.12H108.359V84.48H105.839V81.6ZM111.671 94.344V101.904H119.519L121.607 99.78V96.684L119.339 94.344H111.671ZM111.671 84.696V91.464H118.799L120.887 89.34V86.82L118.835 84.696H111.671Z" fill="white"/>
</svg>
