<svg width="180" height="165" viewBox="0 0 180 165" fill="none" xmlns="http://www.w3.org/2000/svg">
<path d="M130.197 67.4603L0.000732422 66.5385C8.6505 38.2442 34.7452 17.7833 65.4456 18.0006C96.146 18.218 121.948 39.0463 130.197 67.4603Z" fill="#393535"/>
<path d="M0.348337 114.637L130.544 115.563C121.894 143.857 95.7983 164.317 65.0979 164.099C34.3975 163.881 8.59579 143.052 0.348337 114.637Z" fill="#393535"/>
<path d="M106.772 32C106.272 19.3333 108.772 0.99998 134.272 1C159.772 1.00002 142.772 16.5 142.772 16.5C142.772 16.5 132.772 -0.79998 106.772 32C135.696 34.2442 151.98 36.2008 178.772 16.5C169.364 31.5487 169.923 38.5252 178.772 49C155.991 51.1358 140.02 47.0789 106.772 32Z" fill="#393535"/>
<path d="M106.772 32C106.272 19.3333 108.772 0.99998 134.272 1C159.772 1.00002 142.772 16.5 142.772 16.5C142.772 16.5 132.772 -0.79998 106.772 32ZM106.772 32C135.696 34.2442 151.98 36.2008 178.772 16.5C169.364 31.5487 169.923 38.5252 178.772 49C155.991 51.1358 140.02 47.079 106.772 32Z" stroke="black"/>
<path d="M130.197 67.4603L0.000732422 66.5385C8.6505 38.2442 34.7452 17.7833 65.4456 18.0006C96.146 18.218 121.948 39.0463 130.197 67.4603Z" fill="#393535"/>
<path d="M0.348337 114.637L130.544 115.563C121.894 143.857 95.7983 164.317 65.0979 164.099C34.3975 163.881 8.59579 143.052 0.348337 114.637Z" fill="#393535"/>
<path d="M106.772 32C106.272 19.3333 108.772 0.99998 134.272 1C159.772 1.00002 142.772 16.5 142.772 16.5C142.772 16.5 132.772 -0.79998 106.772 32C135.696 34.2442 151.98 36.2008 178.772 16.5C169.364 31.5487 169.923 38.5252 178.772 49C155.991 51.1358 140.02 47.0789 106.772 32Z" fill="#393535"/>
<path d="M106.772 32C106.272 19.3333 108.772 0.99998 134.272 1C159.772 1.00002 142.772 16.5 142.772 16.5C142.772 16.5 132.772 -0.79998 106.772 32ZM106.772 32C135.696 34.2442 151.98 36.2008 178.772 16.5C169.364 31.5487 169.923 38.5252 178.772 49C155.991 51.1358 140.02 47.079 106.772 32Z" stroke="black"/>
<path d="M20.808 82.48H18.288V79.6H26.28V82.48H24.12V99.04L20.376 103H13.464L9.72 99.04V92.704H12.6V97.564L14.868 99.904H18.936L20.808 97.996V82.48ZM58.6173 103L54.8733 99.04V83.56L58.6173 79.6H68.7693L72.5133 83.56V99.04L68.7693 103H58.6173ZM60.0213 99.904H67.3293L69.2013 97.996V84.604L67.3653 82.696H60.0573L58.1853 84.604V97.996L60.0213 99.904ZM101.839 79.6H116.239L119.983 83.56V88.6L118.039 90.652L120.703 93.424V99.04L116.959 103H101.839V100.12H104.359V82.48H101.839V79.6ZM107.671 92.344V99.904H115.519L117.607 97.78V94.684L115.339 92.344H107.671ZM107.671 82.696V89.464H114.799L116.887 87.34V84.82L114.835 82.696H107.671Z" fill="black"/>
</svg>
